<svg xmlns="http://www.w3.org/2000/svg" viewBox="0 0 62.63 26.09"><g id="Lager_2" data-name="Lager 2"><g id="Lager_1-2" data-name="Lager 1"><path d="M1.7,25.83H4.9l2.4-5.58H4.17Zm14.54-2.28a1.15,1.15,0,0,1-.94-.49,5.37,5.37,0,0,1-.78-1.5l-.47-1.31H10.93l1.18,3.33a4.29,4.29,0,0,0,1.21,1.94,3,3,0,0,0,1.9.57,6,6,0,0,0,1-.09,3.75,3.75,0,0,0,.88-.25V23.42A4.58,4.58,0,0,1,16.24,23.55ZM7.31,10.19a4.44,4.44,0,0,0-1.1-1.82,2.51,2.51,0,0,0-1.67-.52A6.81,6.81,0,0,0,3.11,8V5.5a8.07,8.07,0,0,1,2-.23,5.44,5.44,0,0,1,2.27.43A4,4,0,0,1,8.94,7a12.43,12.43,0,0,1,1.37,2.83l3.74,10.39h3V0H0V20.25H4.17l3.73-8.4Zm2,5H9.18a26.75,26.75,0,0,1-1.26,3.64L7.3,20.25h3.63c-.57-1.58-.94-2.65-1.12-3.2C9.52,16.18,9.34,15.55,9.26,15.18Z" fill="#ee705e"/><path d="M30.62,25.83H28.33V19.22a2.92,2.92,0,0,0-.5-1.85,2,2,0,0,0-1.59-.61,2.53,2.53,0,0,0-2.12.85,4.79,4.79,0,0,0-.67,2.87v5.35H21.17V15.09H23l.32,1.41h.11a3.21,3.21,0,0,1,1.38-1.19,4.62,4.62,0,0,1,2-.42c2.58,0,3.87,1.32,3.87,3.94Z" fill="#0d1016"/><path d="M43.32,20.44A5.89,5.89,0,0,1,42,24.55,4.84,4.84,0,0,1,38.21,26a5.09,5.09,0,0,1-2.66-.68,4.5,4.5,0,0,1-1.78-1.95,6.7,6.7,0,0,1-.62-2.95,5.85,5.85,0,0,1,1.34-4.08,4.87,4.87,0,0,1,3.78-1.47A4.74,4.74,0,0,1,42,16.39,5.79,5.79,0,0,1,43.32,20.44Zm-7.82,0q0,3.72,2.75,3.72T41,20.44q0-3.68-2.74-3.68a2.34,2.34,0,0,0-2.08.95A4.83,4.83,0,0,0,35.5,20.44Z" fill="#0d1016"/><path d="M49.94,24.18a5.65,5.65,0,0,0,1.67-.26v1.71a4.22,4.22,0,0,1-1,.28A6.29,6.29,0,0,1,49.4,26q-3.24,0-3.24-3.42V16.82H44.69v-1L46.26,15,47,12.7h1.41v2.39h3.06v1.73H48.45v5.75a1.61,1.61,0,0,0,.41,1.21A1.49,1.49,0,0,0,49.94,24.18Z" fill="#0d1016"/><path d="M58.45,26a5.17,5.17,0,0,1-3.92-1.46,5.53,5.53,0,0,1-1.41-4,6.1,6.1,0,0,1,1.31-4.14A4.53,4.53,0,0,1,58,14.89a4.39,4.39,0,0,1,3.36,1.3,4.93,4.93,0,0,1,1.24,3.55V21H55.47a3.54,3.54,0,0,0,.84,2.41,3,3,0,0,0,2.25.84A8.29,8.29,0,0,0,60.33,24a9.17,9.17,0,0,0,1.76-.6v1.85a6.74,6.74,0,0,1-1.69.57A10.39,10.39,0,0,1,58.45,26ZM58,16.62a2.3,2.3,0,0,0-1.74.69,3.24,3.24,0,0,0-.78,2h4.87a2.9,2.9,0,0,0-.64-2A2.17,2.17,0,0,0,58,16.62Z" fill="#0d1016"/></g></g></svg>